<?xml version="1.0" encoding="utf-8"?>
<!-- Generator: Adobe Illustrator 21.0.2, SVG Export Plug-In . SVG Version: 6.00 Build 0)  -->
<svg version="1.1" id="圖層_1" xmlns="http://www.w3.org/2000/svg" xmlns:xlink="http://www.w3.org/1999/xlink" x="0px" y="0px"
	 viewBox="0 0 298 298" style="enable-background:new 0 0 298 298;" xml:space="preserve">
<style type="text/css">
	.st0{fill:#FF3737;}
	.st1{fill:#CCCCCC;}
</style>
<path class="st0" d="M235,123.3c-1.2-4.1-2.7-8-4.5-11.8L255,93.9c-4.6-8.7-10.2-16.8-16.7-24.1l-25.2,16.7c-2.9-3-6.1-5.8-9.4-8.3
	l13.5-27c-8-5.6-16.7-10.2-25.9-13.6l-14.5,26.5c-4-1.3-8-2.3-12.2-3L164,30.7c-4.8-0.6-9.7-0.9-14.7-0.9s-9.9,0.3-14.7,0.9
	L134,60.9c-4.2,0.7-8.3,1.7-12.2,3l-14.5-26.5c-9.3,3.5-18,8.1-25.9,13.6l13.5,27c-3.3,2.6-6.5,5.3-9.4,8.3L60.3,69.8
	C53.8,77,48.2,85.1,43.7,93.9l24.5,17.6c-1.8,3.8-3.3,7.7-4.5,11.8l-30.1-3.1c-2.3,9.2-3.5,18.9-3.5,28.8c0,0.1,0,0.2,0,0.3
	l29.9,4.2c0.2,4.3,0.7,8.4,1.5,12.5l-28,11.2c2.3,9.6,5.9,18.8,10.4,27.4l28.4-10.2c2.1,3.6,4.5,7.1,7.2,10.4l-19.6,23
	c6.5,7.3,13.8,13.9,21.9,19.5l20.5-22.2c3.6,2.2,7.3,4.2,11.1,5.9l-6.7,29.5c9,3.4,18.6,5.8,28.5,7l7.8-29.2
	c2.1,0.1,4.2,0.2,6.3,0.2s4.2-0.1,6.3-0.2l7.8,29.2c9.9-1.2,19.5-3.5,28.5-7l-6.7-29.5c3.9-1.7,7.6-3.7,11.1-5.9l20.5,22.2
	c8.1-5.6,15.5-12.1,21.9-19.5l-19.6-23c2.6-3.3,5-6.7,7.2-10.4l28.4,10.2c4.5-8.6,8-17.8,10.4-27.4l-28-11.2
	c0.8-4.1,1.3-8.2,1.5-12.5l29.9-4.2c0-0.1,0-0.2,0-0.3c0-9.9-1.2-19.6-3.5-28.8L235,123.3z M149,208.6c-32.9,0-59.6-26.7-59.6-59.6
	s26.7-59.6,59.6-59.6s59.6,26.7,59.6,59.6S181.9,208.6,149,208.6z"/>
<g>
	<path class="st1" d="M180.8,181.4c10.6-10.6,14.8-25.2,12.7-39c-0.3-1.8-2.4-2.4-3.7-1.2l-27.4,27.4c-1.8,1.8-4.5,2.5-6.9,1.9
		l-18-4.8c-2.5-0.7-4.4-2.6-5.1-5.1l-4.8-18c-0.7-2.5,0-5.1,1.9-6.9l27.4-27.4c1.3-1.3,0.6-3.4-1.2-3.7c-15-2.3-30.9,2.9-41.6,15.6
		c-12.1,14.3-13.8,34.6-5.3,50.7l-74.1,62.9c-8.7,8.1-9,21.9-0.5,30.3c8.4,8.4,22.2,8.2,30.3-0.5l62.8-74.1
		C144.5,198.5,166.3,195.9,180.8,181.4z M42.7,255.4c-3.9-3.9-3.9-10.2,0-14c3.9-3.9,10.2-3.9,14,0c3.9,3.9,3.9,10.2,0,14
		C52.8,259.3,46.5,259.3,42.7,255.4z"/>
</g>
</svg>
